<svg viewBox="0 0 100 130" fill="none" xmlns="http://www.w3.org/2000/svg">
  <!-- Teal location pin (matching your logo) -->
  <path d="M50 10C34.536 10 22 22.536 22 38C22 58 50 120 50 120S78 58 78 38C78 22.536 65.464 10 50 10Z" fill="#2F9A87"/>
  
  <!-- Black center circle -->
  <circle cx="50" cy="38" r="18" fill="#1A1A1A"/>
  
  <!-- Orange heart (classic heart shape matching your logo) -->
  <path d="M50 45C46.2 42.8 42 40.2 42 36C42 33.2 44.2 31 47 31C48.4 31 49.6 31.6 50 32.6C50.4 31.6 51.6 31 53 31C55.8 31 58 33.2 58 36C58 40.2 53.8 42.8 50 45Z" fill="#FF9500"/>
</svg>